OpenSim_Sub02_CSBaseline_LCS.mot
version=1
nRows=78
nColumns=11
inDegrees=no
endheader
time	Bot_Shank	2nd_Bot_Shank	2nd_Top_Shank	Top_Shank	Bot_Thigh	Med_Thigh	Top_Thigh	BNOx	BNOy	BNOZ
0.10000000	9348.42034575	9866.44312112	11421.98478218	11423.70920954	12835.40062815	13539.43757156	13881.34491200	211.35603132	-79.02999628	129.59835949
0.11000000	9349.36699430	9867.35517644	11421.91036728	11422.40917401	12832.70368396	13544.06197509	13882.43009699	211.27615009	-79.08042281	129.63368984
0.12000000	9350.21619973	9868.17520561	11421.38312609	11420.57973782	12828.40121806	13550.27239026	13883.46940477	211.18223778	-79.13262816	129.66565475
0.13000000	9350.96968102	9868.87705899	11420.53893390	11418.39176147	12823.06490894	13557.57151726	13884.43670166	211.07904061	-79.18574960	129.69538846
0.14000000	9351.62971211	9869.43428816	11419.52295799	11416.02630412	12817.29830218	13565.43546478	13885.30614314	210.97153740	-79.23888162	129.72413711
0.15000000	9352.19856696	9869.82044469	11418.48036565	11413.66442491	12811.70494339	13573.34034148	13886.05188470	210.86470698	-79.29111873	129.75314685
0.16000000	9352.67851951	9870.00908015	11417.55632416	11411.48718297	12806.88837817	13580.76225605	13886.64808182	210.76352815	-79.34155543	129.78366382
0.17000000	9353.07185959	9869.97386677	11416.89574301	11409.67529001	12803.45099161	13587.17827612	13887.06911814	210.67297083	-79.38928784	129.81693237
0.18000000	9353.38423969	9869.71405704	11416.58887773	11408.33580135	12801.74914341	13592.26876861	13887.33774714	210.59611691	-79.43375533	129.85381902
0.19000000	9353.62881496	9869.28597633	11416.60404367	11407.41143513	12801.59027804	13596.16768803	13887.58464179	210.53183586	-79.47516305	129.89434724
0.20000000	9353.81975568	9868.75367236	11416.89305687	11406.82267361	12802.70756818	13599.07036223	13887.95507729	210.47842720	-79.51381978	129.93842643
0.21000000	9353.97123214	9868.18119284	11417.40773337	11406.48999904	12804.83418649	13601.17211910	13888.59432883	210.43419042	-79.55003432	129.98596600
0.22000000	9354.09741462	9867.63258549	11418.09988921	11406.33389368	12807.70330565	13602.66828649	13889.64767158	210.39742504	-79.58411543	130.03687536
0.23000000	9354.21247341	9867.17189804	11418.92134044	11406.27483979	12811.04809831	13603.75419229	13891.26038075	210.36643056	-79.61637191	130.09106390
0.24000000	9354.33057880	9866.86317819	11419.82390310	11406.23331963	12814.60173714	13604.62516435	13893.57773151	210.33950649	-79.64711253	130.14844103
0.25000000	9354.46590108	9866.77047366	11420.75939322	11406.12981544	12818.09739482	13605.47653054	13896.74499906	210.31495233	-79.67664607	130.20891616
0.26000000	9354.63261053	9866.95783217	11421.67962685	11405.88480948	12821.26824400	13606.50361874	13900.90745858	210.29106760	-79.70528133	130.27239869
0.27000000	9354.84487744	9867.48930143	11422.53642003	11405.41878402	12823.84745736	13607.90175682	13906.21038527	210.26615180	-79.73332707	130.33879802
0.28000000	9355.11686054	9868.42761575	11423.28211510	11404.65389145	12825.57286509	13609.86259931	13912.79266463	210.23851490	-79.76109911	130.40808251
0.29000000	9355.46226955	9869.78445055	11423.88951418	11403.57721072	12826.36335931	13612.43499991	13920.54478318	210.20687363	-79.78918638	130.48251215
0.30000000	9355.89423087	9871.50515394	11424.35799736	11402.26016274	12826.37303792	13615.48230901	13929.03454843	210.17047315	-79.81853265	130.56732385
0.31000000	9356.42583192	9873.53064126	11424.68872098	11400.77980509	12825.77171804	13618.85547947	13937.80820265	210.12859390	-79.85010537	130.66795347
0.32000000	9357.07016014	9875.80182787	11424.88284140	11399.21319539	12824.72921678	13622.40546419	13946.41198815	210.08051634	-79.88487202	130.78983689
0.33000000	9357.84030295	9878.25962912	11424.94151495	11397.63739122	12823.41535124	13625.98321603	13954.39214724	210.02552093	-79.92380004	130.93840995
0.34000000	9358.74934778	9880.84496035	11424.86589798	11396.12945019	12821.99993855	13629.43968787	13961.29492220	209.96288813	-79.96785692	131.11910853
0.35000000	9359.81038204	9883.49873691	11424.65714684	11394.76642989	12820.65279580	13632.62583259	13966.66655533	209.89189839	-80.01801012	131.33736849
0.36000000	9361.03649316	9886.16187415	11424.31641787	11393.62538792	12819.54374012	13635.39260307	13970.05328894	209.81183217	-80.07522709	131.59862569
0.37000000	9362.44044097	9888.77550468	11423.84498154	11392.78313106	12818.84190545	13637.59088938	13971.00545407	209.72198802	-80.14046353	131.90824239
0.38000000	9364.00963838	9891.29757028	11423.25293868	11392.29705884	12818.66356985	13639.06672249	13969.38972974	209.62306367	-80.21376383	132.26588534
0.39000000	9365.68853356	9893.71450541	11422.56535811	11392.19167424	12819.03541696	13639.65789681	13965.60902677	209.51812865	-80.29362769	132.66156702
0.40000000	9367.41741288	9896.01550453	11421.80875859	11392.48829372	12819.97545181	13639.20140895	13960.11819819	209.41048219	-80.37840515	133.08436479
0.41000000	9369.13656270	9898.18976207	11421.00965882	11393.20823370	12821.50167944	13637.53425549	13953.37209706	209.30342356	-80.46644629	133.52335595
0.42000000	9370.78626939	9900.22647246	11420.19457754	11394.37281062	12823.63210489	13634.49343303	13945.82557644	209.20025199	-80.55610117	133.96761785
0.43000000	9372.30681933	9902.11483016	11419.39003347	11396.00334093	12826.38473320	13629.91593816	13937.93348937	209.10426674	-80.64571984	134.40622782
0.44000000	9373.64023175	9903.84410001	11418.62214370	11398.11843047	12829.77002321	13623.65220642	13930.14182647	209.01862961	-80.73369699	134.82868966
0.45000000	9374.76838213	9905.40516681	11417.90778719	11400.67434119	12833.62487130	13615.86176946	13922.69274221	208.94334108	-80.81945326	135.23431585
0.46000000	9375.71300214	9906.79053522	11417.25460486	11403.56499114	12837.61261134	13607.01325498	13915.62455494	208.87524033	-80.90343532	135.63222760
0.47000000	9376.49755632	9907.99278035	11416.66983593	11406.68158779	12841.38903101	13597.58872962	13908.96672055	208.81102907	-80.98613443	136.03197258
0.48000000	9377.14550924	9909.00447731	11416.16071965	11409.91533860	12844.60991801	13588.07026007	13902.74869496	208.74740902	-81.06804184	136.44309844
0.49000000	9377.68032544	9909.81820120	11415.73449525	11413.15745103	12846.93106002	13578.93991298	13896.99993407	208.68108191	-81.14964883	136.87515285
0.50000000	9378.12546948	9910.42652712	11415.39840198	11416.29913254	12848.00824473	13570.67975501	13891.74989377	208.60874946	-81.23144665	137.33768347
0.51000000	9378.50440591	9910.82203020	11415.15967908	11419.23159059	12847.49725982	13563.77185284	13887.02802997	208.52711339	-81.31392656	137.84023797
0.52000000	9378.84059929	9910.99728552	11415.02556578	11421.84603264	12845.05389299	13558.69827311	13882.86379858	208.43287541	-81.39757984	138.39236401
0.53000000	9379.15671683	9910.94620192	11415.00277297	11424.03711562	12840.35696674	13555.92106649	13879.28562838	208.32288517	-81.48285607	139.00300252
0.54000000	9379.45708714	9910.69336356	11415.08585909	11425.77883423	12833.61510465	13555.44191536	13876.29832459	208.19739427	-81.56924688	139.66713955
0.55000000	9379.72770023	9910.29402998	11415.25723019	11427.12452093	12825.56673136	13556.80213383	13873.88306887	208.06005628	-81.65528583	140.36580629
0.56000000	9379.95374877	9909.80479445	11415.49876394	11428.13095766	12816.97330632	13559.52302003	13872.02001576	207.91467269	-81.73946486	141.07942718
0.57000000	9380.12042542	9909.28225019	11415.79233802	11428.85492636	12808.59628901	13563.12587205	13870.68931979	207.76504501	-81.82027590	141.78842668
0.58000000	9380.21292285	9908.78299048	11416.11983011	11429.35320897	12801.19713887	13567.13198802	13869.87113550	207.61497471	-81.89621088	142.47322924
0.59000000	9380.21643372	9908.36360855	11416.46311788	11429.68258742	12795.53731537	13571.06266603	13869.54561744	207.46826329	-81.96576174	143.11425929
0.60000000	9380.11615072	9908.08069765	11416.80407900	11429.89984364	12792.37827797	13574.43920421	13869.69292013	207.32871224	-82.02742041	143.69194129
0.61000000	9379.89788137	9907.99001257	11417.12498838	11430.06178670	12792.46529647	13576.78990305	13870.29229429	207.20007072	-82.07970763	144.18725291
0.62000000	9379.57133637	9908.11471271	11417.42356297	11430.22627960	12795.91426708	13577.91528169	13871.28785399	207.08405399	-82.12226430	144.60267818
0.63000000	9379.17727747	9908.43561492	11417.71757952	11430.45255452	12802.02350751	13577.96948083	13872.57806963	206.97973514	-82.15618644	144.96863866
0.64000000	9378.75854160	9908.93070621	11418.02615539	11430.79993511	12810.03669532	13577.13027429	13874.05836113	206.88601072	-82.18266732	145.31742302
0.65000000	9378.35796570	9909.57797360	11418.36840795	11431.32774505	12819.19750807	13575.57543591	13875.62414843	206.80177723	-82.20290020	145.68131994
0.66000000	9378.01838669	9910.35540412	11418.76345458	11432.09530800	12828.74962332	13573.48273952	13877.17085146	206.72593120	-82.21807836	146.09261809
0.67000000	9377.78264152	9911.24098479	11419.23041265	11433.16194763	12837.93671861	13571.02995894	13878.59389016	206.65736917	-82.22939504	146.58360615
0.68000000	9377.69356712	9912.21270262	11419.78839951	11434.58698760	12846.00247152	13568.39486801	13879.78868446	206.59498766	-82.23804354	147.18657279
0.69000000	9377.79400043	9913.24854464	11420.45653255	11436.42975159	12852.19055959	13565.75524056	13880.65065429	206.53768320	-82.24521710	147.93380668
0.70000000	9378.12656159	9914.32656889	11421.25367632	11438.74887690	12855.75062065	13563.28814624	13881.07614945	206.48435402	-82.25209977	148.85696361
0.71000000	9378.71709832	9915.43032832	11422.17913556	11441.54989611	12856.39344036	13561.11617252	13881.03346193	206.43403185	-82.25916168	149.93873272
0.72000000	9379.56302788	9916.55269010	11423.19905969	11444.74832568	12854.61148196	13559.26955573	13880.61283087	206.38597458	-82.26566285	151.07880131
0.73000000	9380.65901361	9917.68742365	11424.27638658	11448.25096262	12850.97292612	13557.76958661	13879.91630783	206.33946203	-82.27074606	152.16881666
0.74000000	9381.99971885	9918.82829838	11425.37405407	11451.96460395	12846.04595352	13556.63755588	13879.04594438	206.29377402	-82.27355412	153.10042605
0.75000000	9383.57980693	9919.96908370	11426.45500001	11455.79604668	12840.39874484	13555.89475427	13878.10379207	206.24819036	-82.27322982	153.76527677
0.76000000	9385.39394120	9921.10354903	11427.48216223	11459.65208780	12834.59948074	13555.56247252	13877.19190246	206.20199089	-82.26891595	154.05501611
0.77000000	9387.43678498	9922.22546376	11428.41847861	11463.43952435	12829.21634190	13555.66200134	13876.41232713	206.15445541	-82.25975531	153.86129135
0.78000000	9389.70316879	9923.32863059	11429.22709787	11467.06565229	12824.81411979	13556.21398894	13875.86674468	206.10487147	-82.24489542	153.07788896
0.79000000	9392.20085801	9924.40942579	11429.88748615	11470.47637304	12821.69538110	13557.18937006	13875.62797826	206.05312383	-82.22384957	151.76410483
0.80000000	9394.95954347	9925.46858810	11430.40676867	11473.68302692	12819.71820340	13558.47481176	13875.71993903	206.00010962	-82.19675103	150.25978477
0.81000000	9398.01103984	9926.50727884	11430.79474986	11476.70329301	12818.69760864	13559.94881844	13876.16180027	205.94682402	-82.16379316	148.93195016
0.82000000	9401.38716177	9927.52665930	11431.06123414	11479.55485036	12818.44861883	13561.48989455	13876.97273525	205.89426222	-82.12516929	148.14762238
0.83000000	9405.11972391	9928.52789081	11431.21602595	11482.25537807	12818.78625592	13562.97654448	13878.17191726	205.84341941	-82.08107277	148.27382278
0.84000000	9409.24054094	9929.51213466	11431.26892971	11484.82255519	12819.52554191	13564.28727268	13879.77851956	205.79529075	-82.03169694	149.67757275
0.85000000	9413.78142749	9930.48055216	11431.22974985	11487.27406080	12820.48149877	13565.30058357	13881.81171544	205.75087145	-81.97723513	152.72589365
0.86000000	9418.77419824	9931.43430463	11431.10829080	11489.62757397	12821.46914847	13565.89498156	13884.29067818	205.71115669	-81.91788069	157.78580687
0.87000000	9424.24821356	9932.37437141	11430.91429687	11491.90097451	12822.30481483	13565.94920070	13887.22961720	205.67709116	-81.85382546	165.20589957
